<?xml version="1.0" encoding="UTF-8"?>
<!DOCTYPE svg PUBLIC "-//W3C//DTD SVG 1.0//EN" "http://www.w3.org/TR/2001/REC-SVG-20010904/DTD/svg10.dtd">
<!-- Creator: CorelDRAW 2020 (64 Bit) -->
<svg xmlns="http://www.w3.org/2000/svg" xml:space="preserve" width="54.7995mm" height="55.3245mm" version="1.0" style="shape-rendering:geometricPrecision; text-rendering:geometricPrecision; image-rendering:optimizeQuality; fill-rule:evenodd; clip-rule:evenodd"
viewBox="0 0 404 408"
 xmlns:xlink="http://www.w3.org/1999/xlink"
 xmlns:xodm="http://www.corel.com/coreldraw/odm/2003">
 <defs>
  <style type="text/css">
   <![CDATA[
    .str0 {stroke:fuchsia;stroke-width:21;stroke-linecap:round;stroke-linejoin:round;stroke-miterlimit:22.9256}
    .fil0 {fill:none}
    .fil1 {fill:url(#id3)}
   ]]>
  </style>
   <clipPath id="id0">
    <path d="M68 10l267 0c32,0 58,26 58,58l0 271c0,32 -26,58 -58,58l-267 0c-32,0 -58,-26 -58,-58l0 -271c0,-32 26,-58 58,-58z"/>
   </clipPath>
    <clipPath id="id1">
     <path d="M120 52l165 0 0 304 -165 0 0 -304z"/>
    </clipPath>
    <clipPath id="id2">
     <path d="M68 10l267 0c32,0 58,26 58,58l0 271c0,32 -26,58 -58,58l-267 0c-32,0 -58,-26 -58,-58l0 -271c0,-32 26,-58 58,-58z"/>
    </clipPath>
  <radialGradient id="id3" gradientUnits="userSpaceOnUse" gradientTransform="matrix(0.990002 -0 -0 1 2 0)" cx="202" cy="204" r="194" fx="202" fy="204">
   <stop offset="0" style="stop-opacity:1; stop-color:#583085"/>
   <stop offset="1" style="stop-opacity:1; stop-color:#30065A"/>
  </radialGradient>
 </defs>
 <g id="Camada_x0020_1">
  <metadata id="CorelCorpID_0Corel-Layer"/>
  <g>
   <path class="fil0 str0" d="M68 10l267 0c32,0 58,26 58,58l0 271c0,32 -26,58 -58,58l-267 0c-32,0 -58,-26 -58,-58l0 -271c0,-32 26,-58 58,-58z"/>
  </g>
  <path id="1" class="fil1" d="M68 10l267 0c32,0 58,26 58,58l0 271c0,32 -26,58 -58,58l-267 0c-32,0 -58,-26 -58,-58l0 -271c0,-32 26,-58 58,-58z"/>
  <g style="clip-path:url(#id0)">
   <g>
   </g>
   <g style="clip-path:url(#id1)">
    <image id="Camada_x0020_2" x="120" y="52" width="165" height="304" xlink:href="logo_Images\logo_ImgID1.png"/>
   </g>
   <g style="clip-path:url(#id2)">
   </g>
  </g>
 </g>
</svg>
