<?xml version="1.0" encoding="UTF-8"?>
<!DOCTYPE svg PUBLIC "-//W3C//DTD SVG 1.0//EN" "http://www.w3.org/TR/2001/REC-SVG-20010904/DTD/svg10.dtd">
<!-- Creator: CorelDRAW 2020 (64 Bit) -->
<svg xmlns="http://www.w3.org/2000/svg" xml:space="preserve" width="52.1758mm" height="52.1758mm" version="1.0" style="shape-rendering:geometricPrecision; text-rendering:geometricPrecision; image-rendering:optimizeQuality; fill-rule:evenodd; clip-rule:evenodd"
viewBox="0 0 3653 3653"
 xmlns:xlink="http://www.w3.org/1999/xlink"
 xmlns:xodm="http://www.corel.com/coreldraw/odm/2003">
 <defs>
  <style type="text/css">
   <![CDATA[
    .fil4 {fill:none}
    .fil1 {fill:#200F07}
    .fil2 {fill:#38251E}
    .fil3 {fill:#DEDB94}
    .fil6 {fill:#F5BB02}
    .fil5 {fill:#F6C113}
    .fil7 {fill:#FAC105}
    .fil0 {fill:white}
   ]]>
  </style>
    <clipPath id="id0">
     <path d="M3286 1857c0,0 57,711 -901,994 -957,284 -1365,-131 -1365,-131 0,0 -659,-415 -654,-1253 0,0 -7,-151 79,-242 86,-91 69,-158 212,-227 143,-69 227,-64 326,-74 99,-10 834,64 913,89 79,25 5,35 192,94 188,59 424,188 533,232 109,44 148,62 252,99 104,37 395,138 412,419z"/>
    </clipPath>
     <clipPath id="id1">
      <path d="M370 1569c4,8 115,224 224,340 111,118 91,178 303,289 212,111 237,91 444,153 207,62 355,106 535,99 180,-7 501,10 753,-76 252,-86 370,-205 444,-247 74,-42 109,-35 138,-109 17,-42 50,-104 74,-154 0,-4 0,-7 0,-7 -17,-281 -308,-382 -412,-419 -104,-37 -143,-54 -252,-99 -109,-44 -345,-173 -533,-232 -188,-59 -113,-69 -192,-94 -79,-25 -814,-99 -913,-89 -99,10 -183,5 -326,74 -143,69 -126,136 -212,227 -86,91 -79,242 -79,242 0,35 1,68 3,102z"/>
     </clipPath>
     <clipPath id="id2">
      <path d="M3286 1857c0,0 57,711 -901,994 -957,284 -1365,-131 -1365,-131 0,0 -659,-415 -654,-1253 0,0 -7,-151 79,-242 86,-91 69,-158 212,-227 143,-69 227,-64 326,-74 99,-10 834,64 913,89 79,25 5,35 192,94 188,59 424,188 533,232 109,44 148,62 252,99 104,37 395,138 412,419z"/>
     </clipPath>
    <clipPath id="id3">
     <path d="M1850 1228c0,0 -58,23 -104,-9 -47,-32 -128,-52 -185,-72 -57,-20 -111,-5 -180,25 -69,30 -81,35 -146,79 -64,44 -85,93 -130,149 -45,56 -104,199 -60,402 44,202 402,205 464,200 62,-5 285,-69 285,-69l0 0 -1 -6 0 0 -1 -5 0 -1 -1 -3 -1 -2 -1 -5 0 -1 -1 -6 0 0 -1 -6 0 -1 -1 -5 0 -2 -1 -4 0 0 -1 -5 0 -2 -2 -12 -1 -7 0 0 -1 -6 0 -1 -1 -5 0 -3 -1 -4 0 0 -2 -13 -1 -6 0 0 -1 -7 -1 -7 0 0 0 -2 -1 -5 0 -3 0 -4 0 0 -1 -7 -1 -6 0 -1 -1 -13 0 -2 0 -1 -1 -6 0 -3 0 -4 0 -4 0 -3 0 -5 0 -2 -1 -7 0 0 -1 -7 0 -1 0 -6 0 -2 0 -5 0 -3 0 -4 0 -5 0 -2 0 -6 0 -1 0 -7 0 0 0 -7 0 -1 0 -6 0 -3 0 -4 0 -4 0 -3 0 -5 0 -2 0 -6 0 -1 0 -7 0 -1 0 -6 0 -2 0 -5 0 -3 0 -4 0 -4 0 -2 0 -5 0 -1 0 -7 0 0 0 -6 0 -1 0 -5 0 -2 0 -4 0 -3 0 -3 0 -5 0 -2 0 -6 0 -1 0 -6 0 -1 0 -5 0 -2 0 -4 0 -3 0 -3 0 -4 0 -2 0 -5 0 -1 0 -6 0 -6 0 -2 0 -4 0 -2 0 -5 0 -1 0 0 0 0 0 -5 0 -2 0 -3 0 -3 1 -5 0 0 0 0 1 -6 0 -1 1 -5 0 -2 1 -6 0 0 0 -1 1 -5 0 -1 0 -1 1 -5 0 -1 1 -5 0 -1 0 -1 1 -5 0 -1 1 -5 1 -2 1 -5 0 -1 0 -1 1 -5 0 0 1 -4 1 -2 0 -1c1,-4 2,-8 4,-11l0 0c1,-4 3,-8 4,-11l0 -1 1 -2 2 -5 0 0 2 -5 0 0 1 -3 0 -1 1 -3 1 -2 2 -4 0 0 2 -5 0 -1 1 -3 1 -3 1 -2 2 -4 0 0 2 -4 0 -1 2 -3 1 -2 1 -2 2 -4 0 -1 2 -4 0 -1 2 -3 1 -2 1 -2 2 -3 0 -1 2 -4 0 0 2 -3 1 -2 1 -2 2 -3 0 -1 2 -4 0 0 2 -3 1 -1 1 -2 1 -3 1 -1 2 -4 0 0 2 -3 1 -1 1 -2 1 -2 1 -1 2 -3 0 0 2 -3 1 -1 1 -2 1 -2 1 -1 2 -3 0 0 2 -3 0 -1 1 -2 0 0z"/>
    </clipPath>
     <clipPath id="id4">
      <path d="M1718 1203c-47,-23 -111,-39 -157,-56 -57,-20 -111,-5 -180,25 -69,30 -81,35 -146,79 -64,44 -85,93 -130,149 -23,29 -50,81 -65,153l678 0 0 -349z"/>
     </clipPath>
     <clipPath id="id5">
      <path d="M1718 1203c-47,-23 -111,-39 -157,-56 -57,-20 -111,-5 -180,25 -69,30 -81,35 -146,79 -64,44 -85,93 -130,149 -23,29 -50,81 -65,153l678 0 0 -349z"/>
     </clipPath>
     <clipPath id="id6">
      <path d="M1718 1203c-47,-23 -111,-39 -157,-56 -57,-20 -111,-5 -180,25 -69,30 -81,35 -146,79 -64,44 -85,93 -130,149 -23,29 -50,81 -65,153l678 0 0 -349z"/>
     </clipPath>
     <clipPath id="id7">
      <path d="M1850 1228c0,0 -58,23 -104,-9 -47,-32 -128,-52 -185,-72 -57,-20 -111,-5 -180,25 -69,30 -81,35 -146,79 -64,44 -85,93 -130,149 -45,56 -104,199 -60,402 44,202 402,205 464,200 62,-5 285,-69 285,-69l0 0 -1 -6 0 0 -1 -5 0 -1 -1 -3 -1 -2 -1 -5 0 -1 -1 -6 0 0 -1 -6 0 -1 -1 -5 0 -2 -1 -4 0 0 -1 -5 0 -2 -2 -12 -1 -7 0 0 -1 -6 0 -1 -1 -5 0 -3 -1 -4 0 0 -2 -13 -1 -6 0 0 -1 -7 -1 -7 0 0 0 -2 -1 -5 0 -3 0 -4 0 0 -1 -7 -1 -6 0 -1 -1 -13 0 -2 0 -1 -1 -6 0 -3 0 -4 0 -4 0 -3 0 -5 0 -2 -1 -7 0 0 -1 -7 0 -1 0 -6 0 -2 0 -5 0 -3 0 -4 0 -5 0 -2 0 -6 0 -1 0 -7 0 0 0 -7 0 -1 0 -6 0 -3 0 -4 0 -4 0 -3 0 -5 0 -2 0 -6 0 -1 0 -7 0 -1 0 -6 0 -2 0 -5 0 -3 0 -4 0 -4 0 -2 0 -5 0 -1 0 -7 0 0 0 -6 0 -1 0 -5 0 -2 0 -4 0 -3 0 -3 0 -5 0 -2 0 -6 0 -1 0 -6 0 -1 0 -5 0 -2 0 -4 0 -3 0 -3 0 -4 0 -2 0 -5 0 -1 0 -6 0 -6 0 -2 0 -4 0 -2 0 -5 0 -1 0 0 0 0 0 -5 0 -2 0 -3 0 -3 1 -5 0 0 0 0 1 -6 0 -1 1 -5 0 -2 1 -6 0 0 0 -1 1 -5 0 -1 0 -1 1 -5 0 -1 1 -5 0 -1 0 -1 1 -5 0 -1 1 -5 1 -2 1 -5 0 -1 0 -1 1 -5 0 0 1 -4 1 -2 0 -1c1,-4 2,-8 4,-11l0 0c1,-4 3,-8 4,-11l0 -1 1 -2 2 -5 0 0 2 -5 0 0 1 -3 0 -1 1 -3 1 -2 2 -4 0 0 2 -5 0 -1 1 -3 1 -3 1 -2 2 -4 0 0 2 -4 0 -1 2 -3 1 -2 1 -2 2 -4 0 -1 2 -4 0 -1 2 -3 1 -2 1 -2 2 -3 0 -1 2 -4 0 0 2 -3 1 -2 1 -2 2 -3 0 -1 2 -4 0 0 2 -3 1 -1 1 -2 1 -3 1 -1 2 -4 0 0 2 -3 1 -1 1 -2 1 -2 1 -1 2 -3 0 0 2 -3 1 -1 1 -2 1 -2 1 -1 2 -3 0 0 2 -3 0 -1 1 -2 0 0z"/>
     </clipPath>
    <clipPath id="id8">
     <path d="M1923 1141c6,-14 -21,-139 -51,-181 -30,-42 -49,-81 -74,-97 -25,-16 -62,-59 -62,-59 0,0 -132,-75 -174,-88 -42,-12 -81,-16 -116,-11 -35,5 -59,15 -88,16 -28,1 -59,7 -84,20 -25,12 -99,44 -152,100 -53,56 -94,97 -109,134 -15,37 -19,72 -32,99 -14,27 -37,72 -39,97 -2,25 -46,109 -11,187 36,78 108,103 147,80l0 0c8,-15 16,-27 24,-37 45,-56 66,-104 130,-149 64,-44 76,-49 146,-79 69,-30 123,-44 180,-25 57,20 138,39 185,72 47,32 104,9 104,9l0 0 -1 2c12,-20 22,-35 27,-42 6,-9 23,-22 46,-37l2 -10zm-84 106l-2 3 -1 1 2 -4zm-5 9l-1 1 -2 3 3 -5zm-8 14l-1 1 -2 3 3 -5zm-5 10l-2 3 -1 2 3 -5zm-8 16l-2 3 -1 2 3 -5z"/>
    </clipPath>
     <clipPath id="id9">
      <path d="M1141 824c-6,5 -12,11 -17,17 -53,56 -94,97 -109,134 -15,37 -19,72 -32,99 -14,27 -37,72 -39,97 -2,25 -46,109 -11,187 36,78 108,103 147,80l0 0c8,-15 16,-27 24,-37 45,-56 66,-104 130,-149 64,-44 76,-49 146,-79 52,-22 95,-36 137,-33l0 -315 -377 0z"/>
     </clipPath>
     <clipPath id="id10">
      <path d="M1923 1141c6,-14 -21,-139 -51,-181 -30,-42 -49,-81 -74,-97 -25,-16 -62,-59 -62,-59 0,0 -132,-75 -174,-88 -42,-12 -81,-16 -116,-11 -35,5 -59,15 -88,16 -28,1 -59,7 -84,20 -25,12 -99,44 -152,100 -53,56 -94,97 -109,134 -15,37 -19,72 -32,99 -14,27 -37,72 -39,97 -2,25 -46,109 -11,187 36,78 108,103 147,80l0 0c8,-15 16,-27 24,-37 45,-56 66,-104 130,-149 64,-44 76,-49 146,-79 69,-30 123,-44 180,-25 57,20 138,39 185,72 47,32 104,9 104,9l0 0 -1 2c12,-20 22,-35 27,-42 6,-9 23,-22 46,-37l2 -10zm-84 106l-2 3 -1 1 2 -4zm-5 9l-1 1 -2 3 3 -5zm-8 14l-1 1 -2 3 3 -5zm-5 10l-2 3 -1 2 3 -5zm-8 16l-2 3 -1 2 3 -5z"/>
     </clipPath>
    <clipPath id="id11">
     <path d="M1812 1991c0,0 109,143 350,153 242,10 294,-32 341,-39 47,-7 62,-32 118,-57 57,-25 72,-42 104,-62 32,-20 37,-37 67,-64 30,-27 42,-54 42,-54 0,0 10,-42 -5,-79 -15,-37 5,-30 -15,-123 -20,-94 -25,-151 -39,-183 -15,-32 -143,-269 -262,-341 -118,-72 -106,-42 -155,-69 -49,-27 -151,-35 -249,-7 -99,27 -212,96 -232,123 -20,27 -121,180 -121,318 0,138 12,373 57,484z"/>
    </clipPath>
     <clipPath id="id12">
      <path d="M1812 1991c0,0 109,143 350,153 242,10 294,-32 341,-39 47,-7 62,-32 118,-57 57,-25 72,-42 104,-62 32,-20 37,-37 67,-64 30,-27 42,-54 42,-54 0,0 10,-42 -5,-79 -15,-37 5,-30 -15,-123 -20,-94 -25,-151 -39,-183 -8,-17 -49,-95 -104,-174l-863 0c-27,58 -52,130 -52,198 0,138 12,373 57,484z"/>
     </clipPath>
     <clipPath id="id13">
      <path d="M1812 1991c0,0 109,143 350,153 242,10 294,-32 341,-39 47,-7 62,-32 118,-57 57,-25 72,-42 104,-62 32,-20 37,-37 67,-64 30,-27 42,-54 42,-54 0,0 10,-42 -5,-79 -15,-37 5,-30 -15,-123 -20,-94 -25,-151 -39,-183 -15,-32 -143,-269 -262,-341 -118,-72 -106,-42 -155,-69 -49,-27 -151,-35 -249,-7 -99,27 -212,96 -232,123 -20,27 -121,180 -121,318 0,138 12,373 57,484z"/>
     </clipPath>
     <clipPath id="id14">
      <path d="M1960 1128c-42,24 -74,47 -84,60 -20,27 -121,180 -121,318 0,72 3,171 13,264l192 0 0 -643z"/>
     </clipPath>
     <clipPath id="id15">
      <path d="M1812 1991c0,0 109,143 350,153 242,10 294,-32 341,-39 47,-7 62,-32 118,-57 57,-25 72,-42 104,-62 32,-20 37,-37 67,-64 30,-27 42,-54 42,-54 0,0 10,-42 -5,-79 -15,-37 5,-30 -15,-123 -20,-94 -25,-151 -39,-183 -15,-32 -143,-269 -262,-341 -118,-72 -106,-42 -155,-69 -49,-27 -151,-35 -249,-7 -99,27 -212,96 -232,123 -20,27 -121,180 -121,318 0,138 12,373 57,484z"/>
     </clipPath>
     <clipPath id="id16">
      <path d="M2046 1289l340 0 0 671 -340 0 0 -671z"/>
     </clipPath>
     <clipPath id="id17">
      <path d="M1812 1991c0,0 109,143 350,153 242,10 294,-32 341,-39 47,-7 62,-32 118,-57 57,-25 72,-42 104,-62 32,-20 37,-37 67,-64 30,-27 42,-54 42,-54 0,0 10,-42 -5,-79 -15,-37 5,-30 -15,-123 -20,-94 -25,-151 -39,-183 -15,-32 -143,-269 -262,-341 -118,-72 -106,-42 -155,-69 -49,-27 -151,-35 -249,-7 -99,27 -212,96 -232,123 -20,27 -121,180 -121,318 0,138 12,373 57,484z"/>
     </clipPath>
    <clipPath id="id18">
     <rect x="876" y="1101" width="2013" height="1090"/>
    </clipPath>
    <clipPath id="id19">
     <rect x="1502" y="1447" width="474" height="663"/>
    </clipPath>
    <clipPath id="id20">
     <rect x="1652" y="1147" width="229" height="118"/>
    </clipPath>
 </defs>
 <g id="Camada_x0020_1">
  <metadata id="CorelCorpID_0Corel-Layer"/>
  <circle class="fil0" cx="1827" cy="1827" r="1827"/>
  <g id="_3115577602032">
   <path class="fil1" d="M3286 1857c0,0 57,711 -901,994 -957,284 -1365,-131 -1365,-131 0,0 -659,-415 -654,-1253 0,0 -7,-151 79,-242 86,-91 69,-158 212,-227 143,-69 227,-64 326,-74 99,-10 834,64 913,89 79,25 5,35 192,94 188,59 424,188 533,232 109,44 148,62 252,99 104,37 395,138 412,419z"/>
   <g style="clip-path:url(#id0)">
    <g>
     <path id="1" class="fil2" d="M1766 2440l6 37 -17 39 -14 35 -20 57 -31 76c0,0 -3,5 -20,42 -17,37 -20,39 -20,59 0,20 -6,2 0,30 6,27 6,27 6,27 0,0 40,12 43,-2 3,-15 9,-37 9,-37l0 -39 20 -37c0,0 1,-12 6,-32 5,-20 54,-104 54,-104 0,0 -7,-7 0,-39 7,-32 -2,-37 10,-54 12,-17 15,-49 15,-49l-45 -7z"/>
     <path class="fil3" d="M370 1569c0,0 113,222 224,340 111,118 91,178 303,289 212,111 237,91 444,153 207,62 355,106 535,99 180,-7 501,10 753,-76 252,-86 370,-205 444,-247 74,-42 109,-35 138,-109 30,-74 109,-210 106,-229 -2,-20 -289,-513 -289,-513 0,0 -508,-91 -629,-155 -121,-64 -405,-131 -491,-175 -86,-44 -469,-89 -508,-94 -39,-5 -708,49 -708,49 0,0 -306,101 -316,153 -10,52 -121,170 -104,225 17,54 -7,128 5,160 12,32 92,131 92,131z"/>
    </g>
    <g style="clip-path:url(#id1)">
     <image x="-101" y="563" width="3719" height="2211" xlink:href="logo_Images\logo_ImgID1.png"/>
    </g>
    <g style="clip-path:url(#id2)">
     <path class="fil2" d="M2279 2615l17 6 -3 8 -2 7 0 11 -5 15c0,0 -1,1 -5,9 -4,8 -6,8 0,12 6,4 -5,1 10,5 14,4 14,4 14,4 0,0 42,0 40,-3 -2,-3 -4,-7 -4,-7l-13 -7 7 -8c0,0 -3,-2 -5,-6 -2,-4 18,-22 18,-22 0,0 -9,-1 -13,-7 -3,-6 -14,-6 -8,-10 6,-4 -2,-10 -2,-10l-45 1z"/>
     <path class="fil2" d="M1003 2372l-20 6 0 8 0 7 -4 11 -1 15c0,0 1,1 2,9 1,8 3,8 -5,12 -8,4 4,1 -12,5 -16,4 -16,4 -16,4 0,0 -42,0 -39,-3 3,-3 7,-7 7,-7l15 -7 -4 -8c0,0 4,-2 7,-6 3,-4 -10,-22 -10,-22 0,0 10,-1 15,-7 6,-6 17,-6 12,-10 -5,-4 6,-10 6,-10l45 1z"/>
     <path class="fil2" d="M652 2168l-9 3 0 4 0 3 -2 5 0 7c0,0 0,0 1,4 1,4 1,4 -2,5 -4,2 2,0 -5,2 -7,2 -7,2 -7,2 0,0 -19,0 -18,-1 1,-1 3,-3 3,-3l7 -3 -2 -4c0,0 2,-1 3,-3 1,-2 -4,-10 -4,-10 0,0 4,0 7,-3 3,-3 8,-3 6,-5 -2,-2 3,-4 3,-4l21 1z"/>
     <path class="fil2" d="M2989 2295l-9 3 0 4 0 3 -2 5 0 7c0,0 0,0 1,4 1,4 1,4 -2,5 -4,2 2,0 -5,2 -7,2 -7,2 -7,2 0,0 -19,0 -18,-1 1,-1 3,-3 3,-3l7 -3 -2 -4c0,0 2,-1 3,-3 1,-2 -4,-10 -4,-10 0,0 4,0 7,-3 3,-3 8,-3 6,-5 -2,-2 3,-4 3,-4l21 1z"/>
     <path class="fil2" d="M2844 2482l-9 3 0 4 0 3 -2 5 0 7c0,0 0,0 1,4 1,4 1,4 -2,5 -4,2 2,0 -5,2 -7,2 -7,2 -7,2 0,0 -19,0 -18,-1 1,-1 3,-3 3,-3l7 -3 -2 -4c0,0 2,-1 3,-3 1,-2 -4,-10 -4,-10 0,0 4,0 7,-3 3,-3 8,-3 6,-5 -2,-2 3,-4 3,-4l21 1z"/>
     <path class="fil2" d="M2012 2662l-9 3 0 4 0 3 -2 5 0 7c0,0 0,0 1,4 1,4 1,4 -2,5 -4,2 2,0 -5,2 -7,2 -7,2 -7,2 0,0 -19,0 -18,-1 1,-1 3,-3 3,-3l7 -3 -2 -4c0,0 2,-1 3,-3 1,-2 -4,-10 -4,-10 0,0 4,0 7,-3 3,-3 8,-3 6,-5 -2,-2 3,-4 3,-4l21 1z"/>
     <path class="fil2" d="M1479 2793l-9 -3 0 -4 0 -3 -2 -5 0 -7c0,0 0,0 1,-4 1,-4 1,-4 -2,-5 -4,-2 2,0 -5,-2 -7,-2 -7,-2 -7,-2 0,0 -19,0 -18,1 1,1 3,3 3,3l7 3 -2 4c0,0 2,1 3,3 1,2 -4,10 -4,10 0,0 4,0 7,3 3,3 8,3 6,5 -2,2 3,4 3,4l21 -1z"/>
     <path class="fil2" d="M1424 2554l-9 -3 0 -4 0 -3 -2 -5 0 -7c0,0 0,0 1,-4 1,-4 1,-4 -2,-5 -4,-2 2,0 -5,-2 -7,-2 -7,-2 -7,-2 0,0 -19,0 -18,1 1,1 3,3 3,3l7 3 -2 4c0,0 2,1 3,3 1,2 -4,10 -4,10 0,0 4,0 7,3 3,3 8,3 6,5 -2,2 3,4 3,4l21 -1z"/>
    </g>
   </g>
   <path class="fil4" d="M3286 1857c0,0 57,711 -901,994 -957,284 -1365,-131 -1365,-131 0,0 -659,-415 -654,-1253 0,0 -7,-151 79,-242 86,-91 69,-158 212,-227 143,-69 227,-64 326,-74 99,-10 834,64 913,89 79,25 5,35 192,94 188,59 424,188 533,232 109,44 148,62 252,99 104,37 395,138 412,419z"/>
   <path class="fil5" d="M1850 1228c0,0 -58,23 -104,-9 -47,-32 -128,-52 -185,-72 -57,-20 -111,-5 -180,25 -69,30 -81,35 -146,79 -64,44 -85,93 -130,149 -45,56 -104,199 -60,402 44,202 402,205 464,200 62,-5 285,-69 285,-69l0 0 -1 -6 0 0 -1 -5 0 -1 -1 -3 -1 -2 -1 -5 0 -1 -1 -6 0 0 -1 -6 0 -1 -1 -5 0 -2 -1 -4 0 0 -1 -5 0 -2 -2 -12 -1 -7 0 0 -1 -6 0 -1 -1 -5 0 -3 -1 -4 0 0 -2 -13 -1 -6 0 0 -1 -7 -1 -7 0 0 0 -2 -1 -5 0 -3 0 -4 0 0 -1 -7 -1 -6 0 -1 -1 -13 0 -2 0 -1 -1 -6 0 -3 0 -4 0 -4 0 -3 0 -5 0 -2 -1 -7 0 0 -1 -7 0 -1 0 -6 0 -2 0 -5 0 -3 0 -4 0 -5 0 -2 0 -6 0 -1 0 -7 0 0 0 -7 0 -1 0 -6 0 -3 0 -4 0 -4 0 -3 0 -5 0 -2 0 -6 0 -1 0 -7 0 -1 0 -6 0 -2 0 -5 0 -3 0 -4 0 -4 0 -2 0 -5 0 -1 0 -7 0 0 0 -6 0 -1 0 -5 0 -2 0 -4 0 -3 0 -3 0 -5 0 -2 0 -6 0 -1 0 -6 0 -1 0 -5 0 -2 0 -4 0 -3 0 -3 0 -4 0 -2 0 -5 0 -1 0 -6 0 -6 0 -2 0 -4 0 -2 0 -5 0 -1 0 0 0 0 0 -5 0 -2 0 -3 0 -3 1 -5 0 0 0 0 1 -6 0 -1 1 -5 0 -2 1 -6 0 0 0 -1 1 -5 0 -1 0 -1 1 -5 0 -1 1 -5 0 -1 0 -1 1 -5 0 -1 1 -5 1 -2 1 -5 0 -1 0 -1 1 -5 0 0 1 -4 1 -2 0 -1c1,-4 2,-8 4,-11l0 0c1,-4 3,-8 4,-11l0 -1 1 -2 2 -5 0 0 2 -5 0 0 1 -3 0 -1 1 -3 1 -2 2 -4 0 0 2 -5 0 -1 1 -3 1 -3 1 -2 2 -4 0 0 2 -4 0 -1 2 -3 1 -2 1 -2 2 -4 0 -1 2 -4 0 -1 2 -3 1 -2 1 -2 2 -3 0 -1 2 -4 0 0 2 -3 1 -2 1 -2 2 -3 0 -1 2 -4 0 0 2 -3 1 -1 1 -2 1 -3 1 -1 2 -4 0 0 2 -3 1 -1 1 -2 1 -2 1 -1 2 -3 0 0 2 -3 1 -1 1 -2 1 -2 1 -1 2 -3 0 0 2 -3 0 -1 1 -2 0 0z"/>
   <g style="clip-path:url(#id3)">
    <g>
    </g>
    <g style="clip-path:url(#id4)">
    </g>
    <g style="clip-path:url(#id5)">
     <image x="989" y="927" width="728" height="625" xlink:href="logo_Images\logo_ImgID2.png"/>
    </g>
    <g style="clip-path:url(#id6)">
    </g>
    <g style="clip-path:url(#id7)">
    </g>
   </g>
   <path class="fil4" d="M1850 1228c0,0 -58,23 -104,-9 -47,-32 -128,-52 -185,-72 -57,-20 -111,-5 -180,25 -69,30 -81,35 -146,79 -64,44 -85,93 -130,149 -45,56 -104,199 -60,402 44,202 402,205 464,200 62,-5 285,-69 285,-69l0 0 -1 -6 0 0 -1 -5 0 -1 -1 -3 -1 -2 -1 -5 0 -1 -1 -6 0 0 -1 -6 0 -1 -1 -5 0 -2 -1 -4 0 0 -1 -5 0 -2 -2 -12 -1 -7 0 0 -1 -6 0 -1 -1 -5 0 -3 -1 -4 0 0 -2 -13 -1 -6 0 0 -1 -7 -1 -7 0 0 0 -2 -1 -5 0 -3 0 -4 0 0 -1 -7 -1 -6 0 -1 -1 -13 0 -2 0 -1 -1 -6 0 -3 0 -4 0 -4 0 -3 0 -5 0 -2 -1 -7 0 0 -1 -7 0 -1 0 -6 0 -2 0 -5 0 -3 0 -4 0 -5 0 -2 0 -6 0 -1 0 -7 0 0 0 -7 0 -1 0 -6 0 -3 0 -4 0 -4 0 -3 0 -5 0 -2 0 -6 0 -1 0 -7 0 -1 0 -6 0 -2 0 -5 0 -3 0 -4 0 -4 0 -2 0 -5 0 -1 0 -7 0 0 0 -6 0 -1 0 -5 0 -2 0 -4 0 -3 0 -3 0 -5 0 -2 0 -6 0 -1 0 -6 0 -1 0 -5 0 -2 0 -4 0 -3 0 -3 0 -4 0 -2 0 -5 0 -1 0 -6 0 -6 0 -2 0 -4 0 -2 0 -5 0 -1 0 0 0 0 0 -5 0 -2 0 -3 0 -3 1 -5 0 0 0 0 1 -6 0 -1 1 -5 0 -2 1 -6 0 0 0 -1 1 -5 0 -1 0 -1 1 -5 0 -1 1 -5 0 -1 0 -1 1 -5 0 -1 1 -5 1 -2 1 -5 0 -1 0 -1 1 -5 0 0 1 -4 1 -2 0 -1c1,-4 2,-8 4,-11l0 0c1,-4 3,-8 4,-11l0 -1 1 -2 2 -5 0 0 2 -5 0 0 1 -3 0 -1 1 -3 1 -2 2 -4 0 0 2 -5 0 -1 1 -3 1 -3 1 -2 2 -4 0 0 2 -4 0 -1 2 -3 1 -2 1 -2 2 -4 0 -1 2 -4 0 -1 2 -3 1 -2 1 -2 2 -3 0 -1 2 -4 0 0 2 -3 1 -2 1 -2 2 -3 0 -1 2 -4 0 0 2 -3 1 -1 1 -2 1 -3 1 -1 2 -4 0 0 2 -3 1 -1 1 -2 1 -2 1 -1 2 -3 0 0 2 -3 1 -1 1 -2 1 -2 1 -1 2 -3 0 0 2 -3 0 -1 1 -2 0 0z"/>
   <path class="fil6" d="M1923 1141c6,-14 -21,-139 -51,-181 -30,-42 -49,-81 -74,-97 -25,-16 -62,-59 -62,-59 0,0 -132,-75 -174,-88 -42,-12 -81,-16 -116,-11 -35,5 -59,15 -88,16 -28,1 -59,7 -84,20 -25,12 -99,44 -152,100 -53,56 -94,97 -109,134 -15,37 -19,72 -32,99 -14,27 -37,72 -39,97 -2,25 -46,109 -11,187 36,78 108,103 147,80l0 0c8,-15 16,-27 24,-37 45,-56 66,-104 130,-149 64,-44 76,-49 146,-79 69,-30 123,-44 180,-25 57,20 138,39 185,72 47,32 104,9 104,9l0 0 -1 2c12,-20 22,-35 27,-42 6,-9 23,-22 46,-37l2 -10zm-84 106l-2 3 -1 1 2 -4zm-5 9l-1 1 -2 3 3 -5zm-8 14l-1 1 -2 3 3 -5zm-5 10l-2 3 -1 2 3 -5zm-8 16l-2 3 -1 2 3 -5z"/>
   <g style="clip-path:url(#id8)">
    <g>
    </g>
    <g style="clip-path:url(#id9)">
     <image x="807" y="824" width="711" height="734" xlink:href="logo_Images\logo_ImgID3.png"/>
    </g>
    <g style="clip-path:url(#id10)">
    </g>
   </g>
   <path class="fil4" d="M1923 1141c6,-14 -21,-139 -51,-181 -30,-42 -49,-81 -74,-97 -25,-16 -62,-59 -62,-59 0,0 -132,-75 -174,-88 -42,-12 -81,-16 -116,-11 -35,5 -59,15 -88,16 -28,1 -59,7 -84,20 -25,12 -99,44 -152,100 -53,56 -94,97 -109,134 -15,37 -19,72 -32,99 -14,27 -37,72 -39,97 -2,25 -46,109 -11,187 36,78 108,103 147,80l0 0c8,-15 16,-27 24,-37 45,-56 66,-104 130,-149 64,-44 76,-49 146,-79 69,-30 123,-44 180,-25 57,20 138,39 185,72 47,32 104,9 104,9l0 0 -1 2c12,-20 22,-35 27,-42 6,-9 23,-22 46,-37l2 -10zm-84 106l-2 3 -1 1 2 -4zm-5 9l-1 1 -2 3 3 -5zm-8 14l-1 1 -2 3 3 -5zm-5 10l-2 3 -1 2 3 -5zm-8 16l-2 3 -1 2 3 -5z"/>
   <path class="fil7" d="M1812 1991c0,0 109,143 350,153 242,10 294,-32 341,-39 47,-7 62,-32 118,-57 57,-25 72,-42 104,-62 32,-20 37,-37 67,-64 30,-27 42,-54 42,-54 0,0 10,-42 -5,-79 -15,-37 5,-30 -15,-123 -20,-94 -25,-151 -39,-183 -15,-32 -143,-269 -262,-341 -118,-72 -106,-42 -155,-69 -49,-27 -151,-35 -249,-7 -99,27 -212,96 -232,123 -20,27 -121,180 -121,318 0,138 12,373 57,484z"/>
   <g style="clip-path:url(#id11)">
    <g>
    </g>
    <g style="clip-path:url(#id12)">
     <image x="1523" y="1309" width="1619" height="1248" xlink:href="logo_Images\logo_ImgID4.png"/>
    </g>
    <g style="clip-path:url(#id13)">
    </g>
    <g style="clip-path:url(#id14)">
     <image x="1644" y="1108" width="316" height="663" xlink:href="logo_Images\logo_ImgID5.png"/>
    </g>
    <g style="clip-path:url(#id15)">
    </g>
    <g style="clip-path:url(#id16)">
     <image x="2046" y="1289" width="340" height="671" xlink:href="logo_Images\logo_ImgID6.png"/>
    </g>
    <g style="clip-path:url(#id17)">
    </g>
   </g>
   <path class="fil4" d="M1812 1991c0,0 109,143 350,153 242,10 294,-32 341,-39 47,-7 62,-32 118,-57 57,-25 72,-42 104,-62 32,-20 37,-37 67,-64 30,-27 42,-54 42,-54 0,0 10,-42 -5,-79 -15,-37 5,-30 -15,-123 -20,-94 -25,-151 -39,-183 -15,-32 -143,-269 -262,-341 -118,-72 -106,-42 -155,-69 -49,-27 -151,-35 -249,-7 -99,27 -212,96 -232,123 -20,27 -121,180 -121,318 0,138 12,373 57,484z"/>
   <g style="clip-path:url(#id18)">
    <image x="876" y="1101" width="2013" height="1090" xlink:href="logo_Images\logo_ImgID7.png"/>
   </g>
   <g style="clip-path:url(#id19)">
    <image x="1502" y="1447" width="474" height="663" xlink:href="logo_Images\logo_ImgID8.png"/>
   </g>
   <g style="clip-path:url(#id20)">
    <image x="1652" y="1147" width="229" height="118" xlink:href="logo_Images\logo_ImgID9.png"/>
   </g>
  </g>
 </g>
</svg>
